<mxfile host="Electron" modified="2024-07-05T09:42:52.875Z" agent="Mozilla/5.0 (X11; Linux x86_64) AppleWebKit/537.36 (KHTML, like Gecko) draw.io/24.5.3 Chrome/124.0.6367.207 Electron/30.0.6 Safari/537.36" etag="IT7Rw_lBvuzo4niRU1Ck" version="24.5.3" type="device">
  <diagram name="Page-1" id="58cdce13-f638-feb5-8d6f-7d28b1aa9fa0">
    <mxGraphModel dx="989" dy="581" grid="1" gridSize="10" guides="1" tooltips="1" connect="1" arrows="1" fold="1" page="1" pageScale="1" pageWidth="1100" pageHeight="850" background="none" math="0" shadow="0">
      <root>
        <mxCell id="0" />
        <mxCell id="1" parent="0" />
        <mxCell id="382b91b5511bd0f7-1" value="" style="ellipse;html=1;shape=startState;fillColor=#000000;strokeColor=#000000;rounded=1;shadow=0;comic=0;labelBackgroundColor=none;fontFamily=Verdana;fontSize=12;fontColor=#000000;align=center;direction=south;" parent="1" vertex="1">
          <mxGeometry x="365" y="60" width="30" height="30" as="geometry" />
        </mxCell>
        <mxCell id="-fx093ncS0PglkyHCJIT-4" value="" style="edgeStyle=orthogonalEdgeStyle;rounded=0;orthogonalLoop=1;jettySize=auto;html=1;" edge="1" parent="1" source="382b91b5511bd0f7-6" target="-fx093ncS0PglkyHCJIT-3">
          <mxGeometry relative="1" as="geometry" />
        </mxCell>
        <mxCell id="-fx093ncS0PglkyHCJIT-21" value="battery&amp;nbsp;&lt;div&gt;above the 30%&lt;/div&gt;" style="edgeLabel;html=1;align=center;verticalAlign=middle;resizable=0;points=[];" vertex="1" connectable="0" parent="-fx093ncS0PglkyHCJIT-4">
          <mxGeometry x="0.0336" y="3" relative="1" as="geometry">
            <mxPoint x="-1" y="-27" as="offset" />
          </mxGeometry>
        </mxCell>
        <mxCell id="382b91b5511bd0f7-6" value="Charging" style="rounded=1;whiteSpace=wrap;html=1;arcSize=24;fillColor=#FFFFFF;strokeColor=#000000;shadow=0;comic=0;labelBackgroundColor=none;fontFamily=Verdana;fontSize=12;fontColor=#000000;align=center;" parent="1" vertex="1">
          <mxGeometry x="320" y="140" width="120" height="60" as="geometry" />
        </mxCell>
        <mxCell id="2a3bc250acf0617d-9" style="edgeStyle=orthogonalEdgeStyle;html=1;labelBackgroundColor=none;endArrow=open;endSize=8;strokeColor=#000000;fontFamily=Verdana;fontSize=12;align=left;" parent="1" source="382b91b5511bd0f7-1" target="382b91b5511bd0f7-6" edge="1">
          <mxGeometry relative="1" as="geometry" />
        </mxCell>
        <mxCell id="-fx093ncS0PglkyHCJIT-7" value="" style="edgeStyle=orthogonalEdgeStyle;rounded=0;orthogonalLoop=1;jettySize=auto;html=1;entryX=0.5;entryY=1;entryDx=0;entryDy=0;" edge="1" parent="1" source="-fx093ncS0PglkyHCJIT-3" target="-fx093ncS0PglkyHCJIT-8">
          <mxGeometry relative="1" as="geometry">
            <mxPoint x="580" y="260" as="targetPoint" />
          </mxGeometry>
        </mxCell>
        <mxCell id="-fx093ncS0PglkyHCJIT-22" value="Task Assigned" style="edgeLabel;html=1;align=center;verticalAlign=middle;resizable=0;points=[];" vertex="1" connectable="0" parent="-fx093ncS0PglkyHCJIT-7">
          <mxGeometry x="-0.151" y="-2" relative="1" as="geometry">
            <mxPoint as="offset" />
          </mxGeometry>
        </mxCell>
        <mxCell id="-fx093ncS0PglkyHCJIT-3" value="Waiting" style="whiteSpace=wrap;html=1;fontFamily=Verdana;fillColor=#FFFFFF;strokeColor=#000000;fontColor=#000000;rounded=1;arcSize=24;shadow=0;comic=0;labelBackgroundColor=none;" vertex="1" parent="1">
          <mxGeometry x="520" y="140" width="120" height="60" as="geometry" />
        </mxCell>
        <mxCell id="-fx093ncS0PglkyHCJIT-11" value="" style="edgeStyle=orthogonalEdgeStyle;rounded=0;orthogonalLoop=1;jettySize=auto;html=1;" edge="1" parent="1" source="-fx093ncS0PglkyHCJIT-8" target="-fx093ncS0PglkyHCJIT-10">
          <mxGeometry relative="1" as="geometry" />
        </mxCell>
        <mxCell id="-fx093ncS0PglkyHCJIT-23" value="arrived" style="edgeLabel;html=1;align=center;verticalAlign=middle;resizable=0;points=[];" vertex="1" connectable="0" parent="-fx093ncS0PglkyHCJIT-11">
          <mxGeometry x="-0.0131" y="1" relative="1" as="geometry">
            <mxPoint as="offset" />
          </mxGeometry>
        </mxCell>
        <mxCell id="-fx093ncS0PglkyHCJIT-8" value="Move to IB or Lack" style="whiteSpace=wrap;html=1;fontFamily=Verdana;fillColor=#FFFFFF;strokeColor=#000000;fontColor=#000000;rounded=1;arcSize=24;shadow=0;comic=0;labelBackgroundColor=none;flipV=0;direction=west;" vertex="1" parent="1">
          <mxGeometry x="520" y="300" width="120" height="60" as="geometry" />
        </mxCell>
        <mxCell id="-fx093ncS0PglkyHCJIT-13" value="" style="edgeStyle=orthogonalEdgeStyle;rounded=0;orthogonalLoop=1;jettySize=auto;html=1;" edge="1" parent="1" source="-fx093ncS0PglkyHCJIT-10" target="-fx093ncS0PglkyHCJIT-12">
          <mxGeometry relative="1" as="geometry" />
        </mxCell>
        <mxCell id="-fx093ncS0PglkyHCJIT-25" value="Done" style="edgeLabel;html=1;align=center;verticalAlign=middle;resizable=0;points=[];" vertex="1" connectable="0" parent="-fx093ncS0PglkyHCJIT-13">
          <mxGeometry x="-0.2405" relative="1" as="geometry">
            <mxPoint as="offset" />
          </mxGeometry>
        </mxCell>
        <mxCell id="-fx093ncS0PglkyHCJIT-10" value="Lift the Pallet" style="whiteSpace=wrap;html=1;fontFamily=Verdana;fillColor=#FFFFFF;strokeColor=#000000;fontColor=#000000;rounded=1;arcSize=24;shadow=0;comic=0;labelBackgroundColor=none;flipV=0;direction=west;" vertex="1" parent="1">
          <mxGeometry x="520" y="460" width="120" height="60" as="geometry" />
        </mxCell>
        <mxCell id="-fx093ncS0PglkyHCJIT-15" value="" style="edgeStyle=orthogonalEdgeStyle;rounded=0;orthogonalLoop=1;jettySize=auto;html=1;" edge="1" parent="1" source="-fx093ncS0PglkyHCJIT-12" target="-fx093ncS0PglkyHCJIT-14">
          <mxGeometry relative="1" as="geometry" />
        </mxCell>
        <mxCell id="-fx093ncS0PglkyHCJIT-28" value="Arrived" style="edgeLabel;html=1;align=center;verticalAlign=middle;resizable=0;points=[];" vertex="1" connectable="0" parent="-fx093ncS0PglkyHCJIT-15">
          <mxGeometry x="-0.1198" y="-1" relative="1" as="geometry">
            <mxPoint as="offset" />
          </mxGeometry>
        </mxCell>
        <mxCell id="-fx093ncS0PglkyHCJIT-12" value="Move to Lack or OB" style="whiteSpace=wrap;html=1;fontFamily=Verdana;fillColor=#FFFFFF;strokeColor=#000000;fontColor=#000000;rounded=1;arcSize=24;shadow=0;comic=0;labelBackgroundColor=none;flipV=0;direction=west;" vertex="1" parent="1">
          <mxGeometry x="320" y="460" width="120" height="60" as="geometry" />
        </mxCell>
        <mxCell id="-fx093ncS0PglkyHCJIT-17" value="" style="edgeStyle=orthogonalEdgeStyle;rounded=0;orthogonalLoop=1;jettySize=auto;html=1;" edge="1" parent="1" source="-fx093ncS0PglkyHCJIT-14" target="-fx093ncS0PglkyHCJIT-16">
          <mxGeometry relative="1" as="geometry" />
        </mxCell>
        <mxCell id="-fx093ncS0PglkyHCJIT-29" value="Done" style="edgeLabel;html=1;align=center;verticalAlign=middle;resizable=0;points=[];" vertex="1" connectable="0" parent="-fx093ncS0PglkyHCJIT-17">
          <mxGeometry x="0.0545" y="-2" relative="1" as="geometry">
            <mxPoint as="offset" />
          </mxGeometry>
        </mxCell>
        <mxCell id="-fx093ncS0PglkyHCJIT-14" value="Drop the Pallet" style="whiteSpace=wrap;html=1;fontFamily=Verdana;fillColor=#FFFFFF;strokeColor=#000000;fontColor=#000000;rounded=1;arcSize=24;shadow=0;comic=0;labelBackgroundColor=none;flipV=1;direction=west;" vertex="1" parent="1">
          <mxGeometry x="120" y="460" width="120" height="60" as="geometry" />
        </mxCell>
        <mxCell id="-fx093ncS0PglkyHCJIT-18" style="edgeStyle=orthogonalEdgeStyle;rounded=0;orthogonalLoop=1;jettySize=auto;html=1;entryX=0;entryY=0.5;entryDx=0;entryDy=0;" edge="1" parent="1" source="-fx093ncS0PglkyHCJIT-16" target="382b91b5511bd0f7-6">
          <mxGeometry relative="1" as="geometry">
            <Array as="points">
              <mxPoint x="180" y="170" />
            </Array>
          </mxGeometry>
        </mxCell>
        <mxCell id="-fx093ncS0PglkyHCJIT-31" value="Arrived" style="edgeLabel;html=1;align=center;verticalAlign=middle;resizable=0;points=[];" vertex="1" connectable="0" parent="-fx093ncS0PglkyHCJIT-18">
          <mxGeometry x="-0.0524" y="-1" relative="1" as="geometry">
            <mxPoint x="-1" y="-2" as="offset" />
          </mxGeometry>
        </mxCell>
        <mxCell id="-fx093ncS0PglkyHCJIT-19" style="edgeStyle=orthogonalEdgeStyle;rounded=0;orthogonalLoop=1;jettySize=auto;html=1;" edge="1" parent="1" source="-fx093ncS0PglkyHCJIT-16" target="-fx093ncS0PglkyHCJIT-8">
          <mxGeometry relative="1" as="geometry">
            <mxPoint x="519.9999999999998" y="330.0000000000001" as="targetPoint" />
            <Array as="points" />
          </mxGeometry>
        </mxCell>
        <mxCell id="-fx093ncS0PglkyHCJIT-30" value="Task Assigned" style="edgeLabel;html=1;align=center;verticalAlign=middle;resizable=0;points=[];" vertex="1" connectable="0" parent="-fx093ncS0PglkyHCJIT-19">
          <mxGeometry x="-0.0594" y="1" relative="1" as="geometry">
            <mxPoint as="offset" />
          </mxGeometry>
        </mxCell>
        <mxCell id="-fx093ncS0PglkyHCJIT-16" value="Return to&lt;div&gt;charging station&lt;/div&gt;" style="whiteSpace=wrap;html=1;fontFamily=Verdana;fillColor=#FFFFFF;strokeColor=#000000;fontColor=#000000;rounded=1;arcSize=24;shadow=0;comic=0;labelBackgroundColor=none;flipV=1;direction=west;" vertex="1" parent="1">
          <mxGeometry x="120" y="300" width="120" height="60" as="geometry" />
        </mxCell>
        <mxCell id="-fx093ncS0PglkyHCJIT-20" style="edgeStyle=orthogonalEdgeStyle;rounded=0;orthogonalLoop=1;jettySize=auto;html=1;entryX=0.75;entryY=1;entryDx=0;entryDy=0;" edge="1" parent="1" source="382b91b5511bd0f7-6" target="382b91b5511bd0f7-6">
          <mxGeometry relative="1" as="geometry">
            <Array as="points">
              <mxPoint x="350" y="220" />
              <mxPoint x="410" y="220" />
            </Array>
          </mxGeometry>
        </mxCell>
      </root>
    </mxGraphModel>
  </diagram>
</mxfile>
